<svg width="43" height="25" viewBox="0 0 43 25" fill="none" xmlns="http://www.w3.org/2000/svg">
<path d="M42.2642 4.09887L31.0044 20.271L28.85 23.3641C28.4956 23.8732 27.9741 24.2403 27.3772 24.401C26.7803 24.5616 26.1462 24.5055 25.5864 24.2425L22.1854 22.649L15.7155 19.6105L19.1327 14.7001L25.6141 17.7405L36.8653 1.55583L42.2652 4.09887H42.2642ZM27.0459 5.39103L23.6286 10.2985L17.1578 7.26111L5.89986 23.4371L0.5 20.9018L11.7598 4.72863L13.9114 1.63551C14.2662 1.12668 14.7878 0.759764 15.3848 0.59914C15.9817 0.438516 16.6159 0.494443 17.1759 0.757109L20.576 2.35359L27.0459 5.39103Z" fill="currentColor"></path>
</svg>